<svg width="29" height="29" viewBox="0 0 29 29" fill="none" xmlns="http://www.w3.org/2000/svg">
<path d="M16.0267 18.8198L16.035 18.8286L16.0435 18.8371L21.1837 23.9773H20.0682C19.029 23.9773 18.1818 24.8244 18.1818 25.8636C18.1818 26.9028 19.029 27.75 20.0682 27.75H25.75C26.199 27.75 26.7658 27.5956 27.1487 27.1731C27.4346 26.8822 27.75 26.4243 27.75 25.8636V20.1818C27.75 19.1426 26.9028 18.2955 25.8636 18.2955C24.8244 18.2955 23.9773 19.1426 23.9773 20.1818V21.3085L18.7803 16.1572C18.7799 16.1567 18.7795 16.1563 18.779 16.1559C18.0315 15.4097 16.819 15.4102 16.0719 16.1572C15.3273 16.9018 15.3275 18.0739 16.0267 18.8198ZM27.75 8.81818V3.13636C27.75 2.65386 27.5761 2.16766 27.1901 1.80991C26.8323 1.42386 26.3461 1.25 25.8636 1.25H20.1818C19.1426 1.25 18.2955 2.09715 18.2955 3.13636C18.2955 4.17558 19.1426 5.02273 20.1818 5.02273H21.3028L16.0151 10.3333C16.0149 10.3336 16.0146 10.3338 16.0143 10.3341C15.2677 11.0816 15.268 12.2661 16.0151 13.0133C16.3786 13.3767 16.8516 13.5739 17.3409 13.5739C17.8302 13.5739 18.3033 13.3767 18.6667 13.0133L23.9773 7.70271V8.81818C23.9773 9.8574 24.8244 10.7045 25.8636 10.7045C26.9028 10.7045 27.75 9.8574 27.75 8.81818ZM10.2197 16.1004L5.02273 21.2973V20.1818C5.02273 19.1426 4.17558 18.2955 3.13636 18.2955C2.09715 18.2955 1.25 19.1426 1.25 20.1818V25.8636C1.25 26.3536 1.42927 26.8473 1.82792 27.2066C2.19588 27.5658 2.66492 27.75 3.16477 27.75H8.84659C9.8858 27.75 10.733 26.9028 10.733 25.8636C10.733 24.8244 9.8858 23.9773 8.84659 23.9773H7.70271L12.8996 18.7803C13.6679 18.0121 13.5921 16.8384 12.9165 16.1177C12.1848 15.3373 10.9573 15.3627 10.2197 16.1004ZM5.02273 8.93182V7.78793L10.3049 13.0701C10.6683 13.4335 11.1414 13.6307 11.6307 13.6307C12.1199 13.6307 12.593 13.4335 12.9565 13.0701C13.7039 12.3227 13.7039 11.1376 12.9565 10.3901L7.70271 5.13636H8.81818C9.8574 5.13636 10.7045 4.28921 10.7045 3.25C10.7045 2.21079 9.8574 1.36364 8.81818 1.36364H3.13636C2.65386 1.36364 2.16765 1.5375 1.80991 1.92354C1.42386 2.28129 1.25 2.7675 1.25 3.25V8.93182C1.25 9.97103 2.09715 10.8182 3.13636 10.8182C4.17558 10.8182 5.02273 9.97103 5.02273 8.93182Z" fill="white" stroke="#333333" stroke-width="1.5"/>
</svg>


