<svg width="160" height="36" viewBox="0 0 160 36" fill="none" xmlns="http://www.w3.org/2000/svg">
<path d="M44.6 17.46V18.26H42.02V17.46H44.6ZM43.58 18.26L43.83 17.65C44.3167 17.65 44.72 17.7233 45.04 17.87C45.3667 18.01 45.61 18.2033 45.77 18.45C45.93 18.6967 46.01 18.9767 46.01 19.29C46.01 19.91 45.7833 20.37 45.33 20.67C44.8833 20.97 44.2433 21.12 43.41 21.12C43.2367 21.12 43.0567 21.1133 42.87 21.1C42.6833 21.0933 42.4967 21.0733 42.31 21.04C42.1233 21.0133 41.9467 20.9767 41.78 20.93C41.48 20.8367 41.33 20.66 41.33 20.4V15.4C41.33 15.28 41.36 15.19 41.42 15.13C41.4867 15.0633 41.5767 15.0133 41.69 14.98C41.9167 14.9133 42.1667 14.8667 42.44 14.84C42.72 14.8133 43.0133 14.8 43.32 14.8C44.1 14.8 44.7033 14.9367 45.13 15.21C45.5633 15.4833 45.78 15.9033 45.78 16.47C45.78 16.7633 45.7033 17.0267 45.55 17.26C45.3967 17.4933 45.16 17.6767 44.84 17.81C44.52 17.9433 44.1067 18.01 43.6 18.01L43.51 17.46C43.9167 17.46 44.22 17.38 44.42 17.22C44.62 17.0533 44.72 16.82 44.72 16.52C44.72 16.2267 44.6033 16.0067 44.37 15.86C44.1367 15.7067 43.79 15.63 43.33 15.63C43.1367 15.63 42.9567 15.6367 42.79 15.65C42.63 15.6633 42.4867 15.6833 42.36 15.71V20.18C42.5 20.2133 42.6667 20.24 42.86 20.26C43.06 20.2733 43.2533 20.28 43.44 20.28C43.9267 20.28 44.2967 20.1967 44.55 20.03C44.81 19.8633 44.94 19.6067 44.94 19.26C44.94 18.9467 44.8233 18.7033 44.59 18.53C44.3633 18.35 44.0267 18.26 43.58 18.26ZM48.9852 20.34C49.2252 20.34 49.4285 20.3167 49.5952 20.27C49.7685 20.2167 49.8952 20.1667 49.9752 20.12V18.83L48.8652 18.94C48.5585 18.9667 48.3252 19.0367 48.1652 19.15C48.0118 19.2567 47.9352 19.4167 47.9352 19.63C47.9352 19.85 48.0218 20.0233 48.1952 20.15C48.3685 20.2767 48.6318 20.34 48.9852 20.34ZM48.9552 16.18C49.5752 16.18 50.0652 16.3167 50.4252 16.59C50.7918 16.8567 50.9752 17.28 50.9752 17.86V20.19C50.9752 20.3433 50.9418 20.4633 50.8752 20.55C50.8085 20.6367 50.7152 20.7133 50.5952 20.78C50.4218 20.88 50.1952 20.9633 49.9152 21.03C49.6418 21.1033 49.3318 21.14 48.9852 21.14C48.3385 21.14 47.8318 21.0167 47.4652 20.77C47.1052 20.5167 46.9252 20.1467 46.9252 19.66C46.9252 19.22 47.0685 18.8833 47.3552 18.65C47.6418 18.41 48.0485 18.2667 48.5752 18.22L49.9752 18.08V17.85C49.9752 17.55 49.8785 17.3333 49.6852 17.2C49.4918 17.0667 49.2285 17 48.8952 17C48.6285 17 48.3685 17.0367 48.1152 17.11C47.8685 17.1833 47.6485 17.2667 47.4552 17.36C47.3952 17.3067 47.3418 17.2433 47.2952 17.17C47.2485 17.09 47.2252 17.0067 47.2252 16.92C47.2252 16.7133 47.3385 16.5567 47.5652 16.45C47.7518 16.3633 47.9652 16.2967 48.2052 16.25C48.4518 16.2033 48.7018 16.18 48.9552 16.18ZM53.3528 17.32V18.79H52.3228V17.3C52.3228 17.14 52.3561 17.01 52.4228 16.91C52.4961 16.8033 52.6028 16.7033 52.7428 16.61C52.9295 16.49 53.1728 16.39 53.4728 16.31C53.7795 16.23 54.1128 16.19 54.4728 16.19C55.0528 16.19 55.3428 16.3533 55.3428 16.68C55.3428 16.76 55.3295 16.8333 55.3028 16.9C55.2828 16.9667 55.2561 17.0267 55.2228 17.08C55.1561 17.0667 55.0695 17.0533 54.9628 17.04C54.8628 17.0267 54.7595 17.02 54.6528 17.02C54.3795 17.02 54.1295 17.05 53.9028 17.11C53.6828 17.1633 53.4995 17.2333 53.3528 17.32ZM52.3228 18.36L53.3528 18.45V20.98C53.3061 20.9933 53.2395 21.01 53.1528 21.03C53.0728 21.05 52.9828 21.06 52.8828 21.06C52.6961 21.06 52.5561 21.0233 52.4628 20.95C52.3695 20.8767 52.3228 20.7567 52.3228 20.59V18.36ZM57.1809 17.32V18.79H56.1509V17.3C56.1509 17.14 56.1843 17.01 56.2509 16.91C56.3243 16.8033 56.4309 16.7033 56.5709 16.61C56.7576 16.49 57.0009 16.39 57.3009 16.31C57.6076 16.23 57.9409 16.19 58.3009 16.19C58.8809 16.19 59.1709 16.3533 59.1709 16.68C59.1709 16.76 59.1576 16.8333 59.1309 16.9C59.1109 16.9667 59.0843 17.0267 59.0509 17.08C58.9843 17.0667 58.8976 17.0533 58.7909 17.04C58.6909 17.0267 58.5876 17.02 58.4809 17.02C58.2076 17.02 57.9576 17.05 57.7309 17.11C57.5109 17.1633 57.3276 17.2333 57.1809 17.32ZM56.1509 18.36L57.1809 18.45V20.98C57.1343 20.9933 57.0676 21.01 56.9809 21.03C56.9009 21.05 56.8109 21.06 56.7109 21.06C56.5243 21.06 56.3843 21.0233 56.2909 20.95C56.1976 20.8767 56.1509 20.7567 56.1509 20.59V18.36ZM61.7195 20.34C61.9595 20.34 62.1629 20.3167 62.3295 20.27C62.5029 20.2167 62.6295 20.1667 62.7095 20.12V18.83L61.5995 18.94C61.2929 18.9667 61.0595 19.0367 60.8995 19.15C60.7462 19.2567 60.6695 19.4167 60.6695 19.63C60.6695 19.85 60.7562 20.0233 60.9295 20.15C61.1029 20.2767 61.3662 20.34 61.7195 20.34ZM61.6895 16.18C62.3095 16.18 62.7995 16.3167 63.1595 16.59C63.5262 16.8567 63.7095 17.28 63.7095 17.86V20.19C63.7095 20.3433 63.6762 20.4633 63.6095 20.55C63.5429 20.6367 63.4495 20.7133 63.3295 20.78C63.1562 20.88 62.9295 20.9633 62.6495 21.03C62.3762 21.1033 62.0662 21.14 61.7195 21.14C61.0729 21.14 60.5662 21.0167 60.1995 20.77C59.8395 20.5167 59.6595 20.1467 59.6595 19.66C59.6595 19.22 59.8029 18.8833 60.0895 18.65C60.3762 18.41 60.7829 18.2667 61.3095 18.22L62.7095 18.08V17.85C62.7095 17.55 62.6129 17.3333 62.4195 17.2C62.2262 17.0667 61.9629 17 61.6295 17C61.3629 17 61.1029 17.0367 60.8495 17.11C60.6029 17.1833 60.3829 17.2667 60.1895 17.36C60.1295 17.3067 60.0762 17.2433 60.0295 17.17C59.9829 17.09 59.9595 17.0067 59.9595 16.92C59.9595 16.7133 60.0729 16.5567 60.2995 16.45C60.4862 16.3633 60.6995 16.2967 60.9395 16.25C61.1862 16.2033 61.4362 16.18 61.6895 16.18ZM67.4891 19.23L67.4391 18.48L70.2791 18.08C70.2591 17.7667 70.1491 17.5067 69.9491 17.3C69.7491 17.0867 69.4658 16.98 69.0991 16.98C68.7258 16.98 68.4158 17.1133 68.1691 17.38C67.9225 17.6467 67.7958 18.0267 67.7891 18.52L67.8091 18.9C67.8625 19.3733 68.0325 19.73 68.3191 19.97C68.6058 20.2033 68.9825 20.32 69.4491 20.32C69.7291 20.32 69.9858 20.2767 70.2191 20.19C70.4525 20.1033 70.6391 20.01 70.7791 19.91C70.8591 19.9567 70.9225 20.02 70.9691 20.1C71.0225 20.18 71.0491 20.2667 71.0491 20.36C71.0491 20.5067 70.9758 20.64 70.8291 20.76C70.6825 20.88 70.4825 20.9733 70.2291 21.04C69.9825 21.1067 69.7025 21.14 69.3891 21.14C68.8758 21.14 68.4258 21.0467 68.0391 20.86C67.6525 20.6667 67.3525 20.3833 67.1391 20.01C66.9258 19.63 66.8191 19.1667 66.8191 18.62C66.8191 18.2267 66.8758 17.88 66.9891 17.58C67.1091 17.2733 67.2725 17.0167 67.4791 16.81C67.6858 16.6033 67.9291 16.4467 68.2091 16.34C68.4891 16.2333 68.7891 16.18 69.1091 16.18C69.5291 16.18 69.8991 16.27 70.2191 16.45C70.5458 16.6233 70.7991 16.8667 70.9791 17.18C71.1591 17.4933 71.2491 17.85 71.2491 18.25C71.2491 18.4167 71.2091 18.54 71.1291 18.62C71.0491 18.6933 70.9358 18.74 70.7891 18.76L67.4891 19.23ZM75.8416 19.71C75.8416 20.1567 75.675 20.5067 75.3416 20.76C75.015 21.0133 74.5383 21.14 73.9116 21.14C73.3916 21.14 72.965 21.06 72.6316 20.9C72.2983 20.74 72.1316 20.5467 72.1316 20.32C72.1316 20.22 72.155 20.13 72.2016 20.05C72.255 19.9633 72.325 19.8933 72.4116 19.84C72.5983 19.96 72.8116 20.07 73.0516 20.17C73.2983 20.27 73.575 20.32 73.8816 20.32C74.5083 20.32 74.8216 20.12 74.8216 19.72C74.8216 19.5467 74.7683 19.41 74.6616 19.31C74.555 19.2033 74.395 19.1233 74.1816 19.07L73.4816 18.89C73.035 18.79 72.705 18.63 72.4916 18.41C72.2783 18.19 72.1716 17.9067 72.1716 17.56C72.1716 17.1733 72.3283 16.8467 72.6416 16.58C72.9616 16.3133 73.425 16.18 74.0316 16.18C74.345 16.18 74.6216 16.2133 74.8616 16.28C75.1083 16.34 75.2983 16.4267 75.4316 16.54C75.5716 16.6533 75.6416 16.78 75.6416 16.92C75.6416 17.02 75.6183 17.11 75.5716 17.19C75.525 17.27 75.465 17.33 75.3916 17.37C75.3116 17.3233 75.205 17.27 75.0716 17.21C74.9383 17.15 74.785 17.1 74.6116 17.06C74.445 17.02 74.2716 17 74.0916 17C73.8116 17 73.5883 17.05 73.4216 17.15C73.2616 17.2433 73.1816 17.38 73.1816 17.56C73.1816 17.6867 73.2283 17.8 73.3216 17.9C73.415 17.9933 73.5716 18.0633 73.7916 18.11L74.3816 18.26C74.8816 18.3733 75.2483 18.55 75.4816 18.79C75.7216 19.0233 75.8416 19.33 75.8416 19.71ZM79.0617 21.13C78.7884 21.13 78.5351 21.0933 78.3017 21.02C78.0684 20.9467 77.8884 20.8633 77.7617 20.77V19.86C77.8884 19.9733 78.0451 20.0767 78.2317 20.17C78.4251 20.2567 78.6517 20.3 78.9117 20.3C79.3451 20.3 79.6884 20.1667 79.9417 19.9C80.2017 19.6333 80.3317 19.2133 80.3317 18.64C80.3317 18.24 80.2684 17.9233 80.1417 17.69C80.0151 17.45 79.8451 17.2767 79.6317 17.17C79.4184 17.0633 79.1851 17.01 78.9317 17.01C78.7184 17.01 78.5351 17.0367 78.3817 17.09C78.2284 17.1433 78.0951 17.2033 77.9817 17.27V20.5H76.9517V17.21C76.9517 17.07 76.9784 16.9567 77.0317 16.87C77.0917 16.7767 77.1917 16.6867 77.3317 16.6C77.5184 16.4867 77.7451 16.39 78.0117 16.31C78.2851 16.2233 78.5917 16.18 78.9317 16.18C79.3917 16.18 79.8051 16.2667 80.1717 16.44C80.5451 16.6133 80.8384 16.88 81.0517 17.24C81.2651 17.6 81.3717 18.0667 81.3717 18.64C81.3717 19.1933 81.2717 19.6567 81.0717 20.03C80.8784 20.3967 80.6051 20.6733 80.2517 20.86C79.9051 21.04 79.5084 21.13 79.0617 21.13ZM77.9817 20.2V22.79C77.9351 22.81 77.8684 22.8267 77.7817 22.84C77.7017 22.86 77.6117 22.87 77.5117 22.87C77.3251 22.87 77.1851 22.8333 77.0917 22.76C76.9984 22.6867 76.9517 22.5633 76.9517 22.39V20.18L77.9817 20.2ZM84.2879 20.34C84.5279 20.34 84.7312 20.3167 84.8979 20.27C85.0712 20.2167 85.1979 20.1667 85.2779 20.12V18.83L84.1679 18.94C83.8612 18.9667 83.6279 19.0367 83.4679 19.15C83.3146 19.2567 83.2379 19.4167 83.2379 19.63C83.2379 19.85 83.3246 20.0233 83.4979 20.15C83.6712 20.2767 83.9346 20.34 84.2879 20.34ZM84.2579 16.18C84.8779 16.18 85.3679 16.3167 85.7279 16.59C86.0946 16.8567 86.2779 17.28 86.2779 17.86V20.19C86.2779 20.3433 86.2446 20.4633 86.1779 20.55C86.1112 20.6367 86.0179 20.7133 85.8979 20.78C85.7246 20.88 85.4979 20.9633 85.2179 21.03C84.9446 21.1033 84.6346 21.14 84.2879 21.14C83.6412 21.14 83.1346 21.0167 82.7679 20.77C82.4079 20.5167 82.2279 20.1467 82.2279 19.66C82.2279 19.22 82.3712 18.8833 82.6579 18.65C82.9446 18.41 83.3512 18.2667 83.8779 18.22L85.2779 18.08V17.85C85.2779 17.55 85.1812 17.3333 84.9879 17.2C84.7946 17.0667 84.5312 17 84.1979 17C83.9312 17 83.6712 17.0367 83.4179 17.11C83.1712 17.1833 82.9512 17.2667 82.7579 17.36C82.6979 17.3067 82.6446 17.2433 82.5979 17.17C82.5512 17.09 82.5279 17.0067 82.5279 16.92C82.5279 16.7133 82.6412 16.5567 82.8679 16.45C83.0546 16.3633 83.2679 16.2967 83.5079 16.25C83.7546 16.2033 84.0046 16.18 84.2579 16.18ZM89.9155 17.02C89.4955 17.02 89.1422 17.1633 88.8555 17.45C88.5689 17.73 88.4255 18.1367 88.4255 18.67C88.4255 19.1967 88.5622 19.6 88.8355 19.88C89.1155 20.16 89.4755 20.3 89.9155 20.3C90.1755 20.3 90.3955 20.2667 90.5755 20.2C90.7555 20.1267 90.9122 20.0467 91.0455 19.96C91.1322 20.0133 91.2022 20.0767 91.2555 20.15C91.3089 20.2233 91.3355 20.31 91.3355 20.41C91.3355 20.6167 91.1989 20.79 90.9255 20.93C90.6522 21.0633 90.2989 21.13 89.8655 21.13C89.3789 21.13 88.9489 21.04 88.5755 20.86C88.2022 20.68 87.9089 20.4067 87.6955 20.04C87.4889 19.6733 87.3855 19.2167 87.3855 18.67C87.3855 18.1167 87.4955 17.6567 87.7155 17.29C87.9355 16.9233 88.2322 16.6467 88.6055 16.46C88.9789 16.2733 89.3889 16.18 89.8355 16.18C90.2622 16.18 90.6089 16.2567 90.8755 16.41C91.1489 16.5567 91.2855 16.73 91.2855 16.93C91.2855 17.0233 91.2589 17.1067 91.2055 17.18C91.1589 17.2533 91.0989 17.3133 91.0255 17.36C90.8855 17.2667 90.7289 17.1867 90.5555 17.12C90.3822 17.0533 90.1689 17.02 89.9155 17.02ZM92.38 14.89C92.38 14.7167 92.44 14.5733 92.56 14.46C92.68 14.3467 92.8267 14.29 93 14.29C93.1867 14.29 93.3367 14.3467 93.45 14.46C93.5633 14.5733 93.62 14.7167 93.62 14.89C93.62 15.0567 93.5633 15.2 93.45 15.32C93.3367 15.4333 93.1867 15.49 93 15.49C92.8267 15.49 92.68 15.4333 92.56 15.32C92.44 15.2 92.38 15.0567 92.38 14.89ZM92.49 18.36H93.52V20.98C93.4733 20.9933 93.4067 21.01 93.32 21.03C93.24 21.05 93.15 21.06 93.05 21.06C92.8633 21.06 92.7233 21.0233 92.63 20.95C92.5367 20.8767 92.49 20.7567 92.49 20.59V18.36ZM93.52 18.87H92.49V16.35C92.5367 16.3367 92.6033 16.3233 92.69 16.31C92.7767 16.29 92.87 16.28 92.97 16.28C93.1567 16.28 93.2933 16.3167 93.38 16.39C93.4733 16.4567 93.52 16.5767 93.52 16.75V18.87ZM96.7098 20.34C96.9498 20.34 97.1531 20.3167 97.3198 20.27C97.4931 20.2167 97.6198 20.1667 97.6998 20.12V18.83L96.5898 18.94C96.2831 18.9667 96.0498 19.0367 95.8898 19.15C95.7364 19.2567 95.6598 19.4167 95.6598 19.63C95.6598 19.85 95.7464 20.0233 95.9198 20.15C96.0931 20.2767 96.3564 20.34 96.7098 20.34ZM96.6798 16.18C97.2998 16.18 97.7898 16.3167 98.1498 16.59C98.5164 16.8567 98.6998 17.28 98.6998 17.86V20.19C98.6998 20.3433 98.6664 20.4633 98.5998 20.55C98.5331 20.6367 98.4398 20.7133 98.3198 20.78C98.1464 20.88 97.9198 20.9633 97.6398 21.03C97.3664 21.1033 97.0564 21.14 96.7098 21.14C96.0631 21.14 95.5564 21.0167 95.1898 20.77C94.8298 20.5167 94.6498 20.1467 94.6498 19.66C94.6498 19.22 94.7931 18.8833 95.0798 18.65C95.3664 18.41 95.7731 18.2667 96.2998 18.22L97.6998 18.08V17.85C97.6998 17.55 97.6031 17.3333 97.4098 17.2C97.2164 17.0667 96.9531 17 96.6198 17C96.3531 17 96.0931 17.0367 95.8398 17.11C95.5931 17.1833 95.3731 17.2667 95.1798 17.36C95.1198 17.3067 95.0664 17.2433 95.0198 17.17C94.9731 17.09 94.9498 17.0067 94.9498 16.92C94.9498 16.7133 95.0631 16.5567 95.2898 16.45C95.4764 16.3633 95.6898 16.2967 95.9298 16.25C96.1764 16.2033 96.4264 16.18 96.6798 16.18ZM103.187 20.08V16.83H104.217V20.16C104.217 20.3 104.187 20.4133 104.127 20.5C104.067 20.5867 103.971 20.67 103.837 20.75C103.691 20.8433 103.487 20.93 103.227 21.01C102.967 21.0967 102.667 21.14 102.327 21.14C101.821 21.14 101.377 21.0533 100.997 20.88C100.624 20.7067 100.331 20.44 100.117 20.08C99.9108 19.7133 99.8074 19.2467 99.8074 18.68C99.8074 18.1 99.9108 17.6267 100.117 17.26C100.324 16.8933 100.607 16.6233 100.967 16.45C101.327 16.27 101.721 16.18 102.147 16.18C102.401 16.18 102.637 16.2133 102.857 16.28C103.077 16.3467 103.251 16.43 103.377 16.53V17.43C103.257 17.3167 103.104 17.22 102.917 17.14C102.731 17.0533 102.514 17.01 102.267 17.01C102.007 17.01 101.767 17.0667 101.547 17.18C101.334 17.2867 101.164 17.4633 101.037 17.71C100.911 17.9567 100.847 18.2833 100.847 18.69C100.847 19.25 100.981 19.66 101.247 19.92C101.514 20.18 101.871 20.31 102.317 20.31C102.524 20.31 102.694 20.2867 102.827 20.24C102.967 20.1933 103.087 20.14 103.187 20.08ZM104.217 17.06H103.187V14.51C103.234 14.4967 103.301 14.48 103.387 14.46C103.474 14.44 103.564 14.43 103.657 14.43C103.851 14.43 103.991 14.4667 104.077 14.54C104.171 14.6067 104.217 14.7267 104.217 14.9V17.06ZM110.094 18.66C110.094 19.16 109.997 19.5967 109.804 19.97C109.61 20.3433 109.337 20.6333 108.984 20.84C108.63 21.04 108.214 21.14 107.734 21.14C107.254 21.14 106.837 21.04 106.484 20.84C106.13 20.6333 105.857 20.3467 105.664 19.98C105.47 19.6067 105.374 19.1667 105.374 18.66C105.374 18.1533 105.47 17.7167 105.664 17.35C105.864 16.9767 106.14 16.69 106.494 16.49C106.854 16.2833 107.267 16.18 107.734 16.18C108.207 16.18 108.62 16.2833 108.974 16.49C109.327 16.69 109.6 16.9767 109.794 17.35C109.994 17.7167 110.094 18.1533 110.094 18.66ZM107.734 17.01C107.334 17.01 107.014 17.1567 106.774 17.45C106.54 17.7433 106.424 18.1467 106.424 18.66C106.424 19.18 106.537 19.5867 106.764 19.88C106.997 20.1667 107.32 20.31 107.734 20.31C108.147 20.31 108.467 20.1633 108.694 19.87C108.927 19.5767 109.044 19.1733 109.044 18.66C109.044 18.1467 108.927 17.7433 108.694 17.45C108.46 17.1567 108.14 17.01 107.734 17.01ZM112.249 17.32V18.79H111.219V17.3C111.219 17.14 111.253 17.01 111.319 16.91C111.393 16.8033 111.499 16.7033 111.639 16.61C111.826 16.49 112.069 16.39 112.369 16.31C112.676 16.23 113.009 16.19 113.369 16.19C113.949 16.19 114.239 16.3533 114.239 16.68C114.239 16.76 114.226 16.8333 114.199 16.9C114.179 16.9667 114.153 17.0267 114.119 17.08C114.053 17.0667 113.966 17.0533 113.859 17.04C113.759 17.0267 113.656 17.02 113.549 17.02C113.276 17.02 113.026 17.05 112.799 17.11C112.579 17.1633 112.396 17.2333 112.249 17.32ZM111.219 18.36L112.249 18.45V20.98C112.203 20.9933 112.136 21.01 112.049 21.03C111.969 21.05 111.879 21.06 111.779 21.06C111.593 21.06 111.453 21.0233 111.359 20.95C111.266 20.8767 111.219 20.7567 111.219 20.59V18.36ZM116.788 20.34C117.028 20.34 117.231 20.3167 117.398 20.27C117.571 20.2167 117.698 20.1667 117.778 20.12V18.83L116.668 18.94C116.361 18.9667 116.128 19.0367 115.968 19.15C115.815 19.2567 115.738 19.4167 115.738 19.63C115.738 19.85 115.825 20.0233 115.998 20.15C116.171 20.2767 116.435 20.34 116.788 20.34ZM116.758 16.18C117.378 16.18 117.868 16.3167 118.228 16.59C118.595 16.8567 118.778 17.28 118.778 17.86V20.19C118.778 20.3433 118.745 20.4633 118.678 20.55C118.611 20.6367 118.518 20.7133 118.398 20.78C118.225 20.88 117.998 20.9633 117.718 21.03C117.445 21.1033 117.135 21.14 116.788 21.14C116.141 21.14 115.635 21.0167 115.268 20.77C114.908 20.5167 114.728 20.1467 114.728 19.66C114.728 19.22 114.871 18.8833 115.158 18.65C115.445 18.41 115.851 18.2667 116.378 18.22L117.778 18.08V17.85C117.778 17.55 117.681 17.3333 117.488 17.2C117.295 17.0667 117.031 17 116.698 17C116.431 17 116.171 17.0367 115.918 17.11C115.671 17.1833 115.451 17.2667 115.258 17.36C115.198 17.3067 115.145 17.2433 115.098 17.17C115.051 17.09 115.028 17.0067 115.028 16.92C115.028 16.7133 115.141 16.5567 115.368 16.45C115.555 16.3633 115.768 16.2967 116.008 16.25C116.255 16.2033 116.505 16.18 116.758 16.18Z" fill="white" fill-opacity="0.8"/>
<rect x="0.75" y="0.75" width="158.5" height="34.5" rx="5.25" stroke="white" stroke-opacity="0.8" stroke-width="1.5"/>
</svg>
