<svg width="17" height="17" viewBox="0 0 17 17" fill="none" xmlns="http://www.w3.org/2000/svg">
<path d="M1.1982 0.156459C0.990975 0.156513 0.788477 0.218366 0.616592 0.334109C0.444707 0.449853 0.311246 0.614228 0.233269 0.806219C0.155293 0.998211 0.136346 1.2091 0.17885 1.41191C0.221355 1.61473 0.323379 1.80026 0.471879 1.94479L7.02706 8.49996L0.471879 15.0551C0.371907 15.1511 0.292091 15.2661 0.237107 15.3933C0.182123 15.5205 0.153075 15.6574 0.151665 15.796C0.150255 15.9346 0.176511 16.0721 0.228896 16.2004C0.28128 16.3287 0.35874 16.4453 0.456739 16.5433C0.554738 16.6413 0.671305 16.7187 0.799615 16.7711C0.927924 16.8235 1.0654 16.8497 1.20398 16.8483C1.34256 16.8469 1.47947 16.8179 1.60669 16.7629C1.73391 16.7079 1.84888 16.6281 1.94486 16.5281L8.50004 9.97294L15.0552 16.5281C15.1512 16.6281 15.2662 16.7079 15.3934 16.7629C15.5206 16.8179 15.6575 16.8469 15.7961 16.8483C15.9347 16.8498 16.0722 16.8235 16.2005 16.7711C16.3288 16.7187 16.4453 16.6413 16.5433 16.5433C16.6413 16.4453 16.7188 16.3287 16.7712 16.2004C16.8236 16.0721 16.8498 15.9346 16.8484 15.796C16.847 15.6574 16.818 15.5205 16.763 15.3933C16.708 15.2661 16.6282 15.1511 16.5282 15.0551L9.97302 8.49996L16.5282 1.94479C16.6787 1.79847 16.7815 1.6101 16.8232 1.40435C16.8648 1.1986 16.8433 0.985073 16.7615 0.791755C16.6796 0.598436 16.5413 0.434343 16.3647 0.320979C16.188 0.207616 15.9812 0.150271 15.7714 0.156459C15.5007 0.164522 15.2439 0.277626 15.0552 0.471807L8.50004 7.02698L1.94486 0.471807C1.84779 0.372021 1.7317 0.292704 1.60346 0.23854C1.47521 0.184377 1.33741 0.156467 1.1982 0.156459Z" fill="white"/>
</svg>
