<svg width="19" height="17" viewBox="0 0 21 19" fill="none" xmlns="http://www.w3.org/2000/svg">
<path d="M10.5 18.875C10.1864 18.8746 9.88013 18.7798 9.62109 18.603C5.78369 15.998 4.12207 14.2119 3.20557 13.0952C1.25244 10.7148 0.317383 8.271 0.343751 5.62451C0.374512 2.5918 2.80762 0.125 5.76758 0.125C7.91992 0.125 9.41065 1.3374 10.2788 2.34717C10.3063 2.37883 10.3403 2.40422 10.3784 2.42162C10.4166 2.43903 10.4581 2.44803 10.5 2.44803C10.5419 2.44803 10.5834 2.43903 10.6216 2.42162C10.6597 2.40422 10.6937 2.37883 10.7212 2.34717C11.5894 1.33643 13.0801 0.125 15.2324 0.125C18.1924 0.125 20.6255 2.5918 20.6563 5.625C20.6826 8.27197 19.7466 10.7158 17.7944 13.0957C16.8779 14.2124 15.2163 15.9985 11.3789 18.6035C11.1198 18.7802 10.8136 18.8747 10.5 18.875Z" fill="white" fill-opacity="0.9"/>
</svg>
